<?xml version="1.0" encoding="UTF-8"?>
<svg xmlns="http://www.w3.org/2000/svg" viewBox="0 0 840 840">
  <circle fill="#333" cx="420" cy="420" r="420" />
  <g>
    <path fill="#fff"
      d="M611.16,277.47l-186.02-52c-3.46-.97-7.11-.97-10.57,0l-186.02,52c-21.98,6.14-17.54,38.53,5.28,38.53h52.17v300h-8c-5.52,0-10,4.48-10,10v30c0,5.52,4.48,10,10,10h280c5.52,0,10-4.48,10-10v-30c0-5.52-4.48-10-10-10h-3V316h50.87c22.83,0,27.27-32.38,5.28-38.53Zm-295.16,338.53V316h89v300h-89Zm209,0h-90V316h90v300Z" />
    <circle fill="#fff" cx="420" cy="189" r="25" />
  </g>
</svg>